<?xml version="1.0" encoding="UTF-8" standalone="no"?>
<!-- Created with Inkscape (http://www.inkscape.org/) -->

<svg
   width="149.66649mm"
   height="167.13245mm"
   viewBox="0 0 149.66649 167.13245"
   version="1.1"
   id="svg1"
   xml:space="preserve"
   inkscape:version="1.4.2 (ebf0e94, 2025-05-08)"
   sodipodi:docname="LumoraMallLogo.svg"
   xmlns:inkscape="http://www.inkscape.org/namespaces/inkscape"
   xmlns:sodipodi="http://sodipodi.sourceforge.net/DTD/sodipodi-0.dtd"
   xmlns="http://www.w3.org/2000/svg"
   xmlns:svg="http://www.w3.org/2000/svg"><sodipodi:namedview
     id="namedview1"
     pagecolor="#ffffff"
     bordercolor="#000000"
     borderopacity="0.25"
     inkscape:showpageshadow="2"
     inkscape:pageopacity="0.0"
     inkscape:pagecheckerboard="0"
     inkscape:deskcolor="#d1d1d1"
     inkscape:document-units="mm"
     inkscape:zoom="0.25417602"
     inkscape:cx="-2350.7332"
     inkscape:cy="379.65816"
     inkscape:window-width="1920"
     inkscape:window-height="1009"
     inkscape:window-x="-8"
     inkscape:window-y="-8"
     inkscape:window-maximized="1"
     inkscape:current-layer="layer1" /><defs
     id="defs1"><inkscape:path-effect
       effect="bspline"
       id="path-effect13"
       is_visible="true"
       lpeversion="1.3"
       weight="33.333333"
       steps="2"
       helper_size="0"
       apply_no_weight="true"
       apply_with_weight="true"
       only_selected="false"
       uniform="false" /><inkscape:path-effect
       effect="bspline"
       id="path-effect11"
       is_visible="true"
       lpeversion="1.3"
       weight="33.333333"
       steps="2"
       helper_size="0"
       apply_no_weight="true"
       apply_with_weight="true"
       only_selected="false"
       uniform="false" /><inkscape:path-effect
       effect="bspline"
       id="path-effect9"
       is_visible="true"
       lpeversion="1.3"
       weight="33.333333"
       steps="2"
       helper_size="0"
       apply_no_weight="true"
       apply_with_weight="true"
       only_selected="false"
       uniform="false" /><inkscape:path-effect
       effect="bspline"
       id="path-effect5"
       is_visible="true"
       lpeversion="1.3"
       weight="33.333333"
       steps="2"
       helper_size="0"
       apply_no_weight="true"
       apply_with_weight="true"
       only_selected="false"
       uniform="false" /><inkscape:path-effect
       effect="bspline"
       id="path-effect4"
       is_visible="true"
       lpeversion="1.3"
       weight="33.333333"
       steps="2"
       helper_size="0"
       apply_no_weight="true"
       apply_with_weight="true"
       only_selected="false"
       uniform="false" /><inkscape:path-effect
       effect="bspline"
       id="path-effect3"
       is_visible="true"
       lpeversion="1.3"
       weight="33.333333"
       steps="2"
       helper_size="0"
       apply_no_weight="true"
       apply_with_weight="true"
       only_selected="false"
       uniform="false" /><inkscape:path-effect
       effect="bspline"
       id="path-effect1"
       is_visible="true"
       lpeversion="1.3"
       weight="33.333333"
       steps="2"
       helper_size="0"
       apply_no_weight="true"
       apply_with_weight="true"
       only_selected="false"
       uniform="false" /></defs><g
     inkscape:label="Capa 1"
     inkscape:groupmode="layer"
     id="layer1"
     transform="translate(-1084.6358,41.978728)"><g
       id="g14"
       transform="translate(487.27137)"><g
         id="g13"><path
           id="path8"
           style="fill:#f4e6a3;fill-opacity:1;stroke-width:0.851;stroke-linecap:round;stroke-linejoin:round"
           d="m 669.24283,-41.978316 c -1.51813,0.0077 -2.83663,0.130357 -4.07107,0.283703 -1.23444,0.153347 -2.38485,0.3371 -3.79563,0.682129 -1.41079,0.34503 -3.08233,0.851466 -4.66948,1.449524 -1.58716,0.598058 -3.08948,1.287936 -4.43126,2.008663 -1.34178,0.720727 -2.52259,1.471827 -3.81837,2.468583 -1.29578,0.996756 -2.70662,2.239111 -3.77238,3.320211 -1.06576,1.0811 -1.78628,2.001113 -2.43034,2.867525 -0.64406,0.866412 -1.21146,1.679125 -1.88619,2.729549 -0.67473,1.050425 -1.45718,2.338344 -2.15491,3.703134 -0.69773,1.364789 -1.31073,2.806363 -1.80144,4.155818 -0.49071,1.349456 -0.85914,2.60659 -1.11983,3.45767 -0.26069,0.851081 -0.41406,1.296253 -0.56741,2.162659 -0.15335,0.866406 -0.30634,2.1543 -0.37878,3.1874024 -0.0724,1.033102 -0.0639,1.8112427 -0.0543,2.2355225 0.01,0.4242797 0.0205,0.4944551 0.002,0.5405354 -0.019,0.04608 -0.0681,0.068212 -0.24702,0.068213 -0.17891,6e-7 -0.48761,-0.021704 -1.03249,-0.021704 -0.54489,10e-8 -1.32569,0.021231 -2.204,0.075448 -0.87831,0.054216 -1.85448,0.1412537 -2.89543,0.3581177 -1.04095,0.216864 -2.14692,0.5636174 -3.13366,0.9865031 -0.98674,0.4228857 -1.85422,0.9217393 -2.58072,1.3554728 -0.72651,0.4337335 -1.31198,0.8023319 -1.8433,1.1926921 -0.53132,0.3903601 -1.0081,0.8024704 -1.50689,1.3554728 -0.49878,0.55300235 -1.01946,1.2470657 -1.5291,2.02778318 -0.50964,0.78071752 -1.00853,1.64806222 -1.40973,2.41794032 -0.40121,0.769878 -0.70434,1.4420489 -3.20911,13.1635377 -2.50478,11.721489 -7.21083,34.491723 -9.9813,48.073035 -2.77048,13.581312 -3.60566,17.972979 -4.16409,20.765141 -0.55843,2.792161 -0.83987,3.984676 -1.00252,5.144905 -0.16265,1.16023 -0.20617,2.288154 -0.18449,3.470073 0.0217,1.181918 0.10815,2.417565 0.29249,3.870565 0.18434,1.452999 0.46639,3.123172 1.11156,5.167122 0.64517,2.04396 1.65361,4.46194 2.56987,6.29988 0.91626,1.83794 1.74053,3.09546 2.77606,4.42918 1.03553,1.33373 2.2821,2.74324 4.28811,4.33721 2.006,1.59396 4.77119,3.37268 6.87451,4.49481 2.10332,1.12214 3.54458,1.58781 4.75992,1.9358 1.21534,0.348 2.20461,0.57822 2.88509,0.71624 0.68049,0.13801 1.0525,0.18395 16.83929,0.19378 15.78679,0.01 46.98761,-0.0168 63.01165,-0.03 16.02404,-0.0132 16.87,-0.0131 18.10071,-0.18655 1.23071,-0.17349 2.84624,-0.5203 4.63537,-1.05162 1.78914,-0.53131 3.75192,-1.24675 5.29167,-1.96783 1.53976,-0.72109 2.65617,-1.44794 3.6158,-2.19884 0.95963,-0.75089 1.76209,-1.52603 2.62413,-2.36368 0.86204,-0.83764 1.7836,-1.73751 2.5616,-2.71611 0.77801,-0.9786 1.41242,-2.03603 2.01693,-2.96313 0.60451,-0.9271 1.17936,-1.72385 1.93839,-3.38015 0.75903,-1.65631 1.70221,-4.17191 2.34197,-6.18877 0.63976,-2.01686 0.97575,-3.534675 1.09502,-5.299418 0.11928,-1.764744 0.0221,-3.776475 -2.63291,-17.697628 -2.65497,-13.921153 -7.86759,-39.751333 -10.6655,-53.556421 -2.7979,-13.805089 -3.181,-15.5840937 -3.63337,-17.4242599 -0.45237,-1.8401661 -0.97394,-3.7415765 -1.572,-5.2213867 -0.59805,-1.4798102 -1.27242,-2.53796877 -1.82831,-3.30470786 -0.55588,-0.76673904 -0.99299,-1.24161714 -1.70222,-1.88567304 -0.70923,-0.6440559 -1.69066,-1.4569226 -2.92799,-2.1316528 -1.23732,-0.6747302 -2.73069,-1.2116556 -3.4773,-1.480013 -0.74662,-0.2683575 -0.74663,-0.268094 -0.85111,-0.2997233 -0.10448,-0.031629 -0.31308,-0.095241 -0.5824,-0.1565796 -0.26931,-0.061338 -0.59923,-0.1203176 -0.93276,-0.1653646 -0.33353,-0.045047 -0.67073,-0.07588 -2.45721,-0.068213 -1.78648,0.00767 -5.02203,0.053563 -6.82387,0.084233 -1.80184,0.03067 -2.1701,0.046004 -2.37712,0 -0.20702,-0.046004 -0.25304,-0.153096 -0.2837,-0.3064413 -0.0307,-0.1533452 -0.0459,-0.3530085 -0.0842,-0.7823811 -0.0383,-0.4293727 -0.0994,-1.0886182 -0.16071,-1.8706869 -0.0613,-0.7820689 -0.12268,-1.6866689 -0.3297,-2.8597739 -0.20701,-1.173105 -0.5599,-2.614822 -0.9126,-3.93361 -0.3527,-1.318787 -0.70554,-2.514557 -1.09658,-3.549654 -0.39103,-1.035097 -0.82051,-1.909065 -1.23454,-2.675806 -0.41404,-0.766741 -0.81253,-1.426425 -1.48725,-2.476851 -0.67473,-1.050426 -1.62547,-2.491567 -2.68356,-3.833358 -1.05809,-1.34179 -2.22333,-2.583794 -3.37344,-3.664892 -1.1501,-1.081099 -2.28519,-2.001485 -3.32796,-2.760555 -1.04276,-0.759071 -1.99346,-1.356767 -3.15123,-1.99316 -1.15777,-0.636394 -2.52249,-1.311306 -3.85661,-1.901693 -1.33412,-0.590387 -2.63728,-1.096632 -4.02508,-1.526005 -1.38779,-0.429373 -2.8597,-0.781802 -4.45451,-1.011825 -1.5948,-0.230022 -3.31257,-0.337361 -4.83071,-0.329695 z m 0.0816,11.01018 h 10e-4 c 13.13283,3e-6 23.77943,11.335962 23.77943,24.4687911 h -5.2e-4 c -4.61919,-0.1102051 -35.09323,0.038206 -47.55885,0 0,-13.1328331 10.64608,-24.4687941 23.77891,-24.4687911 z" /><path
           id="path10"
           style="fill:#183b5e;fill-opacity:1;stroke-width:0.851;stroke-linecap:round;stroke-linejoin:round"
           d="m 669.26406,-37.726379 c -1.30193,0.0067 -2.42888,0.109997 -3.56929,0.251664 -1.13928,0.141524 -2.0748,0.291958 -3.30884,0.593762 -1.23172,0.301234 -2.77377,0.767349 -4.17959,1.297078 -1.40742,0.530333 -2.74851,1.14602 -3.91966,1.775086 -1.17274,0.629932 -2.1118,1.22878 -3.2365,2.093929 -1.12375,0.864427 -2.44275,2.029933 -3.33571,2.935738 -0.89322,0.906074 -1.4529,1.616082 -2.04897,2.41794 -0.59522,0.800711 -1.08879,1.511103 -1.71876,2.491838 -0.62782,0.977403 -1.34041,2.156022 -1.94562,3.339848 -0.6056,1.184569 -1.16002,2.481567 -1.5937,3.674194 -0.43417,1.193952 -0.77251,2.348899 -1.04851,3.249931 -0.27686,0.903871 -0.33598,1.026088 -0.44752,1.65623 -0.11195,0.63253 -0.26356,1.88198 -0.32401,2.7440181 -0.0222,0.3170025 -0.0351,0.6010887 -0.0424,0.8516276 0.0204,-0.2404118 0.0416,-0.5006902 0.0631,-0.7756632 0.064,-0.8156609 0.11048,-1.5081525 0.2775,-2.4546305 0.16698,-0.946192 0.87604,-2.314837 1.21181,-3.570325 0.0267,-0.09988 0.0535,-0.198469 0.0801,-0.296106 h 5.2e-4 c -0.015,0.129952 -0.0412,0.300763 -0.0822,0.531751 -0.12017,0.676719 -0.74815,1.86912 -0.90537,2.683557 -0.15721,0.814436 -0.22376,1.250972 -0.2651,1.62574 -0.0413,0.374769 0.32243,0.6877861 0.25942,5.6363489 -0.063,4.94856288 -0.17301,14.5320146 -0.2279,19.4515261 -0.0549,4.919511 -0.0551,5.174416 -0.0145,5.404838 0.0407,0.230421 0.12169,0.436621 0.27078,0.691431 0.14909,0.254809 0.36619,0.558447 0.59118,0.81597 0.225,0.257524 0.45809,0.46883 0.76171,0.631486 0.30362,0.162657 0.67765,0.276386 1.04903,0.333313 0.37138,0.05693 0.74017,0.05733 1.08986,0.01395 0.34969,-0.04337 0.68019,-0.130369 1.0082,-0.303857 0.328,-0.173489 0.6534,-0.433877 0.90279,-0.658875 0.2494,-0.224998 0.42312,-0.414323 0.60203,-0.736906 0.17892,-0.322583 0.36308,-0.77827 0.47077,-1.082621 0.10768,-0.304351 0.13862,-0.457832 0.14263,-1.6769 0.004,-1.219069 -0.019,-3.503708 -0.0305,-4.757333 -0.0115,-1.253624 -0.0115,-1.476131 -0.0191,-1.663981 -0.008,-0.187849 -0.0225,-0.341089 -0.004,-0.413928 0.0192,-0.07284 0.0727,-0.06513 0.24908,0.02687 0.17635,0.092 0.47527,0.268153 0.74362,0.452168 0.26836,0.184016 0.50618,0.375748 0.81287,0.640271 0.3067,0.264524 0.6823,0.60202 1.02733,0.977719 0.34503,0.375698 0.65941,0.7896 0.8971,1.165303 0.23769,0.375704 0.39878,0.713437 0.54829,1.046965 0.14951,0.333527 0.28746,0.662835 0.39481,0.977201 0.10734,0.314366 0.18409,0.613431 0.21859,0.969967 0.0345,0.356535 0.0266,0.770431 0.0227,1.165303 -0.004,0.394872 -0.004,0.770867 -0.0305,1.158069 -0.0268,0.387202 -0.0808,0.785756 -0.21498,1.211296 -0.13418,0.42554 -0.3485,0.877989 -0.55552,1.326534 -0.20702,0.448544 -0.40636,0.893238 -0.65939,1.318782 -0.25303,0.425544 -0.56003,0.831631 -0.94723,1.222665 -0.3872,0.391034 -0.85461,0.766837 -1.31465,1.069702 -0.46004,0.302864 -0.91243,0.533108 -1.43764,0.774629 -0.52521,0.241522 -1.12349,0.494638 -1.76371,0.621151 -0.64023,0.126513 -1.32272,0.126305 -1.93994,0.122473 -0.61722,-0.0038 -1.16908,-0.01173 -1.67896,-0.115238 -0.50988,-0.103506 -0.97776,-0.302774 -1.45314,-0.486792 -0.47538,-0.184018 -0.95804,-0.352659 -1.42576,-0.63252 -0.46771,-0.279861 -0.92028,-0.670688 -1.36115,-1.11156 -0.44088,-0.440872 -0.87032,-0.931732 -1.20768,-1.380277 -0.33737,-0.448546 -0.58235,-0.854811 -0.76636,-1.357023 -0.18402,-0.502213 -0.30697,-1.100178 -0.42582,-1.805575 -0.11885,-0.705397 -0.23386,-1.51795 -0.2837,-2.173511 -0.0498,-0.65556 -0.0343,-1.154232 0.0884,-1.652612 0.12267,-0.49838 0.35239,-0.996428 0.53641,-1.406632 0.18402,-0.410205 0.32205,-0.732288 0.40256,-0.923975 0.0805,-0.191687 0.1036,-0.253084 0.1266,-2.288749 0.023,-2.0356658 0.0462,-6.0456548 0.0615,-8.9937665 0.0113,-2.17245741 -0.28061,-4.2287986 -0.34365,-5.3996704 -0.0178,-3.992e-4 -0.0351,-5.168e-4 -0.0522,-5.168e-4 -0.51937,1.5e-6 -0.59993,-0.021705 -1.03302,-0.021704 -0.43066,10e-8 -1.14722,0.019185 -1.94148,0.068213 -0.7948,0.049062 -1.54947,0.1230553 -2.29082,0.2775024 -0.74364,0.1549265 -1.62107,0.4292832 -2.3244,0.7307048 -0.70261,0.3011166 -1.39544,0.69139722 -2.07584,1.09760742 -0.67842,0.40502718 -1.14546,0.70570703 -1.50585,0.9704834 -0.36057,0.2649048 -0.56954,0.44515338 -0.86765,0.77566328 -0.30049,0.3331494 -0.7117,0.8682752 -1.12655,1.5037841 -0.41381,0.6339223 -0.85682,1.4048382 -1.19734,2.0582723 -0.17008,0.3263664 -0.0593,-0.045887 -0.46664,1.5570109 -0.40729,1.6028974 -1.10899,4.6886271 -2.35748,10.5311401 -2.19241,10.259714 -6.08275,29.048693 -8.87439,42.670264 h -10e-4 l -0.10076,0.489375 -0.11266,0.544153 -0.016,0.08268 c -1.4e-4,6.91e-4 -3.7e-4,0.0014 -5.2e-4,0.0021 -0.0446,0.21807 -0.0888,0.434539 -0.1328,0.649572 5.8e-4,-3.1e-5 9.6e-4,3.1e-5 0.002,0 l -2.10944,10.357508 -0.008,0.03979 c -0.0143,0.07079 -0.0282,0.14026 -0.0424,0.210324 l -0.65112,3.200321 0.006,0.001 v 5.16e-4 c -1.1871,5.911743 -1.70083,8.583276 -2.09135,10.535791 -0.56656,2.832795 -0.83637,4.009673 -0.96118,4.89996 -0.12485,0.890563 -0.16298,1.777519 -0.14417,2.802929 0.0189,1.027849 0.092,2.094368 0.25941,3.414262 0.16741,1.319522 0.39561,2.672198 0.94775,4.421437 0.552,1.74881 1.51415,4.06373 2.32182,5.68389 0.80798,1.62073 1.41757,2.54532 2.32854,3.71863 0.91017,1.17226 1.85281,2.24397 3.57601,3.61322 1.72144,1.36784 4.40736,3.0999 6.23063,4.07262 1.82425,0.97325 2.82549,1.28593 3.9274,1.60145 1.10275,0.31575 1.99096,0.51907 2.56057,0.63459 0.2859,0.058 -0.12598,0.0329 1.96887,0.0625 2.09485,0.0296 6.13635,0.0437 14.0255,0.0486 4.4222,0.003 10.05603,0.003 16.22795,5.2e-4 0.74941,-0.0842 1.59831,-0.17055 2.47789,-0.25373 1.54787,-0.14639 3.19055,-0.28211 4.54597,-0.39326 1.35542,-0.11114 2.42373,-0.1979 5.27824,-0.49609 2.85451,-0.29819 7.49522,-0.80778 10.60452,-1.22525 3.10931,-0.41747 4.68716,-0.7428 5.92057,-1.00304 1.23341,-0.26024 2.12242,-0.45543 3.66489,-0.81597 1.54247,-0.36054 3.73812,-0.88666 5.4622,-1.38545 1.72408,-0.49879 2.97627,-0.97045 4.06331,-1.41231 1.08704,-0.44187 2.00861,-0.85372 3.0577,-1.36064 1.04909,-0.50693 2.22576,-1.10854 3.25045,-1.68052 1.02469,-0.57199 1.89778,-1.11428 2.62516,-1.57406 0.72737,-0.45979 1.30916,-0.83728 1.89911,-1.279 0.58996,-0.44172 1.1879,-0.94781 1.8588,-1.49603 0.6709,-0.54822 1.41429,-1.13845 2.06602,-1.70584 0.65173,-0.56739 1.21151,-1.1119 1.74822,-1.63711 0.53671,-0.52521 1.05052,-1.03108 1.61023,-1.67896 0.55971,-0.64789 1.1654,-1.43786 1.78646,-2.258264 0.62105,-0.820409 1.25776,-1.67141 1.77147,-2.418974 0.51371,-0.747564 0.90434,-1.391192 1.56373,-2.598808 0.6594,-1.207615 1.58733,-2.979101 2.23138,-4.317049 0.64406,-1.337947 1.0044,-2.242444 1.24592,-2.944006 0.24152,-0.701562 0.36421,-1.20019 0.49455,-1.671733 0.13035,-0.471542 0.26811,-0.916061 0.47129,-1.678967 0.20319,-0.762906 0.47187,-1.844004 0.69039,-2.921269 0.21852,-1.077264 0.38725,-2.150412 0.52142,-3.03599 0.13418,-0.885578 0.23347,-1.583374 0.31781,-2.526461 0.0843,-0.943087 0.15335,-2.131408 0.16485,-3.381189 0.0115,-1.24978 -0.0341,-2.561157 -0.0879,-3.603914 -0.0537,-1.042757 -0.11491,-1.81711 -0.20309,-2.656686 -0.0882,-0.839575 -0.20319,-1.744162 -0.3297,-2.57607 -0.12651,-0.831908 -0.26478,-1.590918 -0.4718,-2.821533 -0.20702,-1.230615 -0.48318,-2.932837 -0.76688,-4.62349 -0.28369,-1.690653 -0.57471,-3.369882 -0.95808,-5.566586 -0.38336,-2.196703 -0.85883,-4.910717 -1.32654,-7.540625 -0.46771,-2.629907 -0.92792,-5.175672 -1.45314,-8.027933 -0.52522,-2.852262 -1.11523,-6.010748 -2.204,-12.397693 -1.08877,-6.386945 -2.676,-16.0015647 -3.42356,-21.22299403 -0.17463,-1.21978984 -0.30343,-2.20009837 -0.37621,-2.99206547 -0.0539,-0.00859 -0.10882,-0.016554 -0.16226,-0.023771 -0.21325,-0.028802 -0.13618,-0.038969 -1.8712,-0.031523 -1.73608,0.00745 -4.98261,0.053816 -6.76962,0.084233 -1.46279,0.024899 -1.82137,0.1560002 -2.69492,0.026872 0.004,1.0514419 0.0115,2.76767549 0.0243,5.2172526 0.0153,2.9481117 0.0385,6.9581003 0.0615,8.9937669 0.023,2.035665 0.0461,2.097062 0.12661,2.288749 0.0805,0.191687 0.21854,0.51377 0.40256,0.923975 0.18402,0.410204 0.41373,0.908252 0.5364,1.406632 0.12268,0.49838 0.13817,0.997052 0.0884,1.652612 -0.0498,0.655561 -0.16485,1.468114 -0.2837,2.173511 -0.11885,0.705397 -0.24179,1.303362 -0.42581,1.805575 -0.18401,0.502212 -0.42899,0.908477 -0.76636,1.357023 -0.33736,0.448545 -0.7668,0.939405 -1.20768,1.380277 -0.44087,0.440872 -0.89345,0.831699 -1.36116,1.11156 -0.46772,0.279861 -0.95037,0.448502 -1.42575,0.63252 -0.47538,0.184018 -0.94326,0.383286 -1.45314,0.486792 -0.50988,0.103506 -1.06175,0.111407 -1.67897,0.115238 -0.61722,0.0038 -1.2997,0.004 -1.93993,-0.122473 -0.64022,-0.126513 -1.23851,-0.379629 -1.76372,-0.621151 -0.52521,-0.241521 -0.9776,-0.471765 -1.43764,-0.774629 -0.46004,-0.302865 -0.92745,-0.678668 -1.31465,-1.069702 -0.3872,-0.391034 -0.6942,-0.797121 -0.94723,-1.222665 -0.25303,-0.425544 -0.45237,-0.870238 -0.65939,-1.318782 -0.20702,-0.448545 -0.42134,-0.900994 -0.55552,-1.326534 -0.13418,-0.42554 -0.18813,-0.824094 -0.21497,-1.211296 -0.0268,-0.387202 -0.0267,-0.763197 -0.0305,-1.158069 -0.004,-0.394872 -0.0118,-0.808768 0.0227,-1.165303 0.0345,-0.356536 0.11125,-0.655601 0.21859,-0.969967 0.10735,-0.314366 0.24529,-0.643674 0.3948,-0.977201 0.14951,-0.333528 0.3106,-0.671261 0.54829,-1.046965 0.23769,-0.375703 0.55207,-0.789605 0.8971,-1.165303 0.34503,-0.375699 0.72063,-0.713195 1.02733,-0.977719 0.30669,-0.264523 0.54451,-0.456255 0.81287,-0.640271 0.26835,-0.184015 0.56728,-0.360164 0.74363,-0.452168 0.17636,-0.092 0.22991,-0.09971 0.24908,-0.02687 0.0192,0.07284 0.004,0.226079 -0.004,0.413928 -0.008,0.18785 -0.008,0.410357 -0.0191,1.663981 -0.0115,1.253625 -0.0345,3.538264 -0.0305,4.757333 0.004,1.219068 0.0349,1.372549 0.14263,1.6769 0.10769,0.304351 0.29185,0.760038 0.47077,1.082621 0.17891,0.322583 0.35263,0.511908 0.60203,0.736906 0.24939,0.224998 0.57479,0.485386 0.90279,0.658875 0.32801,0.173488 0.65852,0.260485 1.00821,0.303857 0.34969,0.04337 0.71847,0.04298 1.08985,-0.01395 0.37138,-0.05693 0.74541,-0.170656 1.04903,-0.333313 0.30362,-0.162656 0.53671,-0.373962 0.76171,-0.631486 0.22499,-0.257523 0.44209,-0.561161 0.59118,-0.81597 0.14909,-0.25481 0.23013,-0.46101 0.27079,-0.691431 0.0407,-0.230422 0.0409,-0.485327 -0.014,-5.404838 -0.0549,-4.9195123 -0.16488,-14.50296362 -0.2279,-19.4515265 -0.063,-4.9485628 -0.0791,-5.2615795 -0.1204,-5.6363485 -0.0413,-0.374768 -0.10789,-0.811304 -0.2651,-1.62574 -0.15722,-0.814437 -0.40538,-2.006838 -0.52555,-2.683557 -0.041,-0.230988 -0.0672,-0.401799 -0.0822,-0.531751 -0.30705,-1.127495 -0.60554,-2.102657 -0.88883,-2.852539 -0.30705,-0.812787 -0.64182,-1.497096 -0.99788,-2.156457 -0.3576,-0.662214 -0.6745,-1.19017 -1.3224,-2.198833 -0.64922,-1.010737 -1.53739,-2.348676 -2.44532,-3.500044 -0.90641,-1.149431 -1.93468,-2.247599 -2.94711,-3.199288 -1.01305,-0.952256 -2.01209,-1.764013 -2.9161,-2.422075 -0.90463,-0.658521 -1.66248,-1.132961 -2.69906,-1.702738 -1.03589,-0.569399 -2.31055,-1.201951 -3.52744,-1.740462 -1.21843,-0.539192 -2.35706,-0.978364 -3.56257,-1.351339 -1.20389,-0.372476 -2.45081,-0.670347 -3.80442,-0.86558 -1.35326,-0.195184 -2.89966,-0.29332 -4.20026,-0.286804 h -5.1e-4 z m 0.0594,6.758243 h 0.001 c 13.13283,3e-6 23.77943,10.646081 23.77943,23.7789107 h -5.2e-4 c 0,0.2198787 -0.003,4.5564561 -0.009,4.7749024 -10e-4,0.041472 -0.002,0.083207 -0.004,0.1245402 h -47.54283 c -0.002,-0.8815219 -0.003,-4.7784437 -0.003,-4.8994426 0,-13.1328337 10.64608,-23.7789137 23.77891,-23.7789107 z" /></g><path
         style="fill:#f4e6a3;fill-opacity:1;stroke-width:0.851;stroke-linecap:round;stroke-linejoin:round"
         d="m 605.78461,70.263011 c 0.3757,-1.77881 1.1271,-5.336427 1.50087,-7.099897 0.37376,-1.763469 0.36989,-1.732783 0.42355,-1.713633 0.0537,0.01915 0.16483,0.02681 0.3661,0.03064 0.20127,0.0038 0.4926,0.0038 1.13858,0.02683 0.64598,0.023 1.64656,0.06901 2.47463,0.120761 0.82806,0.05175 1.48362,0.109259 2.07975,0.185933 0.59614,0.07667 1.13284,0.172512 2.00308,0.364195 0.87024,0.191682 2.07399,0.479201 3.02283,0.72264 0.94883,0.243438 1.6427,0.442783 2.48228,0.714976 0.83958,0.272193 1.8248,0.617212 2.52062,0.881737 0.69581,0.264525 1.10216,0.448534 1.47595,0.634471 0.37379,0.185938 0.71497,0.373781 1.49513,0.822328 0.78016,0.448546 1.99924,1.157752 2.81964,1.654211 0.82041,0.496458 1.2421,0.78014 1.74814,1.140505 0.50605,0.360365 1.09641,0.797388 1.61779,1.198006 0.52138,0.400617 0.97375,0.764822 1.43954,1.17694 0.46579,0.412119 0.94498,0.872139 1.38585,1.29576 0.44088,0.423621 0.84341,0.810817 1.24787,1.228689 0.40445,0.417872 0.8108,0.866396 1.14817,1.249769 0.33736,0.383372 0.60571,0.701557 0.82614,0.975664 0.22043,0.274108 0.39295,0.504121 0.58655,0.774392 0.1936,0.270271 0.40828,0.580795 0.63255,0.904742 0.22427,0.323948 0.45812,0.661292 0.6728,0.989071 0.21469,0.327779 0.4102,0.645977 0.59805,0.966092 0.18785,0.320115 0.36802,0.642126 0.6038,1.075337 0.23577,0.433211 0.52712,0.977568 0.75522,1.410776 0.22811,0.433208 0.39295,0.755227 0.56738,1.117507 0.17443,0.362281 0.35844,0.764808 0.51371,1.109839 0.15527,0.345032 0.28178,0.632545 0.40638,0.92582 0.12459,0.293276 0.24726,0.5923 0.41355,1.023427 0.16629,0.431127 0.37619,0.994332 0.52044,1.386406 0.14426,0.392073 0.22286,0.612999 0.29267,0.808856 0.0698,0.195858 0.13079,0.366637 0.24668,0.69058 0.11589,0.323943 0.28667,0.801039 0.39984,1.106007 0.11318,0.304967 0.16875,0.437789 0.20466,0.525183 0.0359,0.08739 0.0522,0.129458 0.0692,0.17759 0.0169,0.04813 0.0346,0.102304 0.0488,0.149756 0.0143,0.04745 0.0251,0.0881 0.036,0.124698 0.0109,0.03659 0.0217,0.06914 0.0305,0.107782 0.009,0.03864 0.0156,0.08333 0.0116,0.126683 -0.004,0.04336 -0.019,0.0854 -0.0332,0.111823 -0.0142,0.02642 -0.0278,0.03729 -0.0516,0.04136 -0.0237,0.0041 -0.0576,0.0014 -0.0861,-0.01623 -0.0284,-0.01761 -0.0515,-0.05017 -0.0969,-0.112514 -0.0454,-0.06235 -0.11318,-0.154496 -0.18366,-0.2731 -0.0705,-0.118605 -0.14367,-0.26362 -0.22972,-0.418807 -0.0861,-0.155186 -0.18502,-0.320571 -0.29006,-0.494059 -0.10505,-0.173488 -0.21619,-0.355117 -0.32598,-0.529285 -0.10979,-0.174167 -0.21823,-0.340876 -0.3253,-0.502169 -0.10708,-0.161292 -0.21279,-0.317152 -0.36009,-0.533339 -0.1473,-0.216187 -0.33618,-0.492669 -0.52742,-0.763176 -0.19125,-0.270507 -0.38485,-0.535018 -0.59474,-0.811041 -0.2099,-0.276024 -0.43607,-0.563537 -0.65076,-0.834768 -0.21468,-0.271231 -0.41786,-0.526175 -0.57888,-0.719776 -0.16101,-0.193602 -0.27984,-0.325849 -0.43607,-0.504118 -0.15622,-0.178268 -0.34981,-0.40253 -0.553,-0.630637 -0.20319,-0.228106 -0.41595,-0.460039 -0.63064,-0.695808 -0.21469,-0.23577 -0.43128,-0.475362 -0.63734,-0.695798 -0.20606,-0.220435 -0.40157,-0.421708 -0.5923,-0.618186 -0.19072,-0.196478 -0.37664,-0.388153 -0.55779,-0.568339 -0.18115,-0.180185 -0.3575,-0.348855 -0.5233,-0.506032 -0.1658,-0.157177 -0.32106,-0.302855 -0.55491,-0.519457 -0.23386,-0.216601 -0.5463,-0.504123 -0.8367,-0.754273 -0.29041,-0.250149 -0.55875,-0.46291 -0.84244,-0.685262 -0.28369,-0.222351 -0.58272,-0.454286 -0.8367,-0.64309 -0.25398,-0.188804 -0.46291,-0.334484 -0.65843,-0.471538 -0.19551,-0.137054 -0.37762,-0.265489 -0.56067,-0.389121 -0.18305,-0.123632 -0.36707,-0.242474 -0.74852,-0.473454 -0.38145,-0.230979 -0.96033,-0.574091 -1.37531,-0.816567 -0.41499,-0.242475 -0.66611,-0.384326 -0.86928,-0.491663 -0.20318,-0.107337 -0.35843,-0.18017 -0.58654,-0.287516 -0.22811,-0.107346 -0.52905,-0.249192 -0.91529,-0.428415 -0.38624,-0.179224 -0.85778,-0.395824 -1.2076,-0.558754 -0.34982,-0.162931 -0.57791,-0.272186 -0.82806,-0.387197 -0.25015,-0.115011 -0.52233,-0.235765 -0.86736,-0.388153 -0.34503,-0.152388 -0.76289,-0.336401 -1.16352,-0.504129 -0.40063,-0.167727 -0.78399,-0.319153 -1.083,-0.43416 -0.29902,-0.115006 -0.51371,-0.193599 -0.77152,-0.279855 -0.25781,-0.08626 -0.55874,-0.180175 -0.82423,-0.257808 -0.26548,-0.07763 -0.49551,-0.138977 -0.66036,-0.181149 -0.16485,-0.04217 -0.26452,-0.06517 -0.55779,-0.130346 -0.29328,-0.06517 -0.78014,-0.172509 -1.19993,-0.254933 -0.41979,-0.08242 -0.77248,-0.139929 -1.05617,-0.178265 -0.28368,-0.03834 -0.49836,-0.0575 -0.70347,-0.0805 -0.2051,-0.023 -0.4006,-0.04984 -0.59229,-0.06709 -0.19169,-0.01725 -0.37955,-0.02491 -0.51946,-0.03449 -0.13991,-0.0096 -0.23193,-0.02108 -0.56354,-0.05463 -0.33162,-0.03354 -0.90283,-0.08913 -1.47022,-0.136095 -0.56738,-0.04696 -1.13092,-0.0853 -1.59096,-0.103516 -0.46005,-0.01822 -0.81655,-0.01632 -1.19609,-0.0058 -0.37955,0.01054 -0.78206,0.02971 -1.09163,0.05079 -0.30958,0.02109 -0.52617,0.04409 -0.71498,0.06613 -0.1888,0.02204 -0.34983,0.04313 -0.6431,0.06613 -0.29328,0.023 -0.71878,0.04792 -1.0897,0.0805 -0.37092,0.03259 -0.68718,0.07284 -1.05905,0.119802 -0.37187,0.04696 -0.79931,0.100632 -1.14434,0.140886 -0.34503,0.04025 -0.60763,0.06709 -0.80986,0.08818 -0.20223,0.02108 -0.34405,0.03641 -0.43704,0.04984 -0.093,0.01342 -0.13708,0.02492 -0.17254,0.03259 -0.0355,0.0077 -0.0623,0.0115 -0.0834,0.01823 -0.0211,0.0067 -0.0364,0.01629 -0.044,0.02107 -0.008,0.0048 -0.008,0.0048 0.36806,-1.774016 z"
         id="path11"
         inkscape:path-effect="#path-effect11"
         inkscape:original-d="m 605.40891,72.041821 c 0.75139,-3.557622 1.50278,-7.115241 2.2542,-10.672863 -0.004,0.03067 -0.008,0.06134 -0.0116,0.09201 0.11118,0.0077 0.22235,0.01535 0.33353,0.02299 0.29136,0 0.58269,0 0.87405,0 1.0006,0.04601 2.00118,0.09201 3.00175,0.138012 0.65556,0.05751 1.31112,0.115009 1.96665,0.172513 0.53674,0.09584 1.07344,0.191683 1.61015,0.287523 1.20377,0.287531 2.40752,0.575048 3.6113,0.862571 0.69389,0.199353 1.38776,0.398698 2.08166,0.598048 0.98526,0.345035 1.97048,0.690055 2.95574,1.035085 0.40637,0.184017 0.81272,0.36803 1.21909,0.552042 0.34121,0.187854 0.68239,0.375698 1.02357,0.563547 1.21915,0.709239 2.43822,1.418447 3.65731,2.127673 0.42172,0.283694 0.84341,0.567378 1.26511,0.851067 0.59039,0.437044 1.18075,0.874072 1.77114,1.311105 0.45236,0.364205 0.90475,0.728393 1.3571,1.092589 0.47922,0.460047 0.9584,0.920076 1.43762,1.380112 0.40253,0.387207 0.80507,0.774396 1.20761,1.161595 0.40637,0.448545 0.81272,0.897072 1.21909,1.345607 0.26837,0.318199 0.53671,0.636387 0.80505,0.954577 0.17253,0.230024 0.34504,0.460039 0.51755,0.690057 0.21468,0.310531 0.42937,0.621049 0.64405,0.931574 0.23387,0.337368 0.4677,0.674722 0.70157,1.012082 0.1955,0.318198 0.39103,0.636386 0.58653,0.954577 0.18021,0.322032 0.36036,0.644054 0.54054,0.966078 0.29139,0.544388 0.58272,1.088755 0.87408,1.633133 0.16486,0.322032 0.3297,0.644051 0.49453,0.966078 0.18402,0.40254 0.36804,0.805064 0.55205,1.207598 0.12653,0.287528 0.25303,0.575046 0.37955,0.862568 0.12266,0.299033 0.24535,0.598049 0.36801,0.897073 0.20992,0.563229 0.41981,1.126437 0.62971,1.689653 0.0786,0.220935 0.15721,0.441859 0.23582,0.662789 0.061,0.170783 0.122,0.341561 0.18299,0.512342 0.17078,0.477107 0.34157,0.954198 0.51233,1.431298 0.0556,0.132831 0.11116,0.265657 0.16672,0.398486 0.0161,0.04202 0.0325,0.08404 0.0488,0.126053 0.0177,0.05422 0.0352,0.108431 0.0529,0.162647 0.0109,0.04066 0.0217,0.08133 0.0326,0.121986 0.0108,0.03253 0.0217,0.06506 0.0325,0.09759 0.007,0.04473 0.0135,0.08946 0.0204,0.134184 -0.0148,0.04202 -0.0298,0.08404 -0.0448,0.126052 -0.0135,0.01085 -0.0271,0.0217 -0.0407,0.03253 -0.0339,-0.0027 -0.0678,-0.0054 -0.10165,-0.0081 -0.023,-0.03253 -0.0461,-0.06506 -0.0691,-0.09759 -0.0678,-0.09217 -0.13555,-0.184332 -0.20334,-0.2765 -0.0732,-0.145031 -0.14636,-0.290055 -0.21955,-0.435083 -0.0989,-0.165362 -0.19791,-0.330716 -0.29683,-0.496076 -0.11115,-0.181625 -0.22231,-0.363246 -0.33343,-0.544869 -0.10845,-0.166717 -0.21688,-0.333428 -0.32531,-0.500142 -0.10572,-0.155874 -0.21142,-0.31174 -0.31715,-0.467611 -0.18889,-0.276493 -0.37777,-0.552972 -0.56663,-0.829456 -0.19363,-0.264528 -0.38722,-0.529045 -0.58082,-0.793565 -0.22619,-0.287528 -0.45236,-0.575045 -0.67855,-0.862571 -0.20317,-0.254941 -0.40637,-0.509873 -0.60954,-0.764809 -0.11886,-0.132266 -0.23768,-0.264523 -0.35653,-0.396783 -0.1936,-0.224274 -0.38719,-0.448537 -0.58079,-0.672806 -0.21278,-0.231939 -0.42555,-0.46387 -0.63831,-0.695804 -0.21661,-0.239609 -0.4332,-0.479205 -0.64981,-0.718809 -0.1955,-0.201272 -0.39103,-0.402532 -0.58653,-0.603798 -0.18595,-0.191688 -0.37187,-0.383365 -0.55779,-0.575048 -0.17638,-0.168683 -0.35272,-0.33736 -0.52907,-0.50604 -0.15525,-0.145682 -0.31051,-0.291356 -0.46577,-0.437036 -0.31244,-0.287528 -0.62489,-0.575045 -0.93734,-0.86257 -0.26836,-0.21277 -0.5367,-0.425535 -0.80505,-0.6383 -0.29903,-0.231941 -0.59806,-0.463873 -0.89709,-0.695806 -0.20892,-0.145682 -0.41786,-0.291357 -0.6268,-0.437036 -0.18209,-0.128429 -0.3642,-0.256855 -0.54628,-0.385281 -0.18402,-0.118846 -0.36804,-0.237686 -0.55206,-0.356529 -0.57888,-0.34312 -1.15776,-0.686223 -1.73662,-1.029332 -0.25111,-0.141849 -0.50223,-0.283692 -0.75332,-0.425535 -0.15526,-0.07284 -0.31051,-0.14568 -0.4658,-0.218519 -0.30093,-0.141846 -0.60187,-0.283689 -0.90281,-0.425535 -0.47154,-0.216604 -0.94308,-0.4332 -1.41462,-0.649801 -0.2281,-0.109262 -0.45619,-0.218519 -0.68429,-0.327776 -0.2722,-0.120764 -0.54438,-0.24152 -0.81659,-0.362281 -0.41785,-0.184018 -0.83571,-0.36803 -1.25359,-0.552045 -0.38338,-0.151432 -0.76674,-0.302855 -1.15009,-0.454284 -0.21468,-0.07859 -0.42937,-0.157181 -0.64405,-0.235771 -0.30094,-0.09393 -0.60187,-0.187848 -0.90284,-0.281773 -0.23,-0.06134 -0.46003,-0.122677 -0.69003,-0.184015 -0.0997,-0.02299 -0.19937,-0.046 -0.29903,-0.06901 -0.48689,-0.107344 -0.97375,-0.214683 -1.46064,-0.322024 -0.35269,-0.05751 -0.70538,-0.115009 -1.05806,-0.172514 -0.21469,-0.01918 -0.42937,-0.03834 -0.64405,-0.0575 -0.19553,-0.02684 -0.39103,-0.05367 -0.58656,-0.08051 -0.18785,-0.0077 -0.37571,-0.01535 -0.56353,-0.02299 -0.092,-0.01151 -0.18402,-0.02299 -0.27604,-0.0345 -0.57121,-0.05559 -1.14242,-0.111175 -1.71363,-0.166764 -0.56356,-0.03834 -1.1271,-0.07667 -1.69064,-0.115009 -0.35655,0.0019 -0.71305,0.0038 -1.0696,0.0057 -0.40254,0.01916 -0.80505,0.03834 -1.20758,0.05751 -0.21662,0.02299 -0.43321,0.046 -0.64979,0.069 -0.16103,0.02109 -0.32206,0.04217 -0.48305,0.06326 -0.42556,0.02492 -0.85106,0.04984 -1.27662,0.07475 -0.31628,0.04025 -0.63254,0.08051 -0.94882,0.120761 -0.42746,0.05367 -0.8549,0.107342 -1.28236,0.161012 -0.2626,0.02684 -0.5252,0.05367 -0.78779,0.08051 -0.14187,0.01535 -0.28369,0.03067 -0.42556,0.046 -0.0441,0.01151 -0.0882,0.02299 -0.13224,0.0345 -0.0269,0.0038 -0.0537,0.0077 -0.0805,0.01151 -0.0154,0.0096 -0.0307,0.01918 -0.046,0.02875 z"
         transform="matrix(0.91797885,0.39662933,0.39662933,-0.91797885,21.916554,-106.33537)"
         inkscape:transform-center-x="-23.066591"
         inkscape:transform-center-y="-1.5669794" /></g></g></svg>
